<svg xmlns="http://www.w3.org/2000/svg" width="222" height="77" viewBox="0 0 222 77" fill="none">
  <g clip-path="url(#clip0_0_596)">
    <path d="M78.4546 10.7627H83.307V35.4605H78.4546V10.7627Z" fill="#2389DA"/>
    <path d="M101.007 10.7627H105.546V35.4605H101.007V33.3785C99.6699 35.0963 97.7701 35.9549 95.3076 35.9542C92.9382 35.9542 90.9151 35.0544 89.2381 33.2548C87.5611 31.4552 86.7227 29.2492 86.7227 26.6366C86.7227 24.0255 87.5611 21.8194 89.2381 20.0184C90.9151 18.2174 92.9382 17.3176 95.3076 17.3191C97.7701 17.3191 99.6699 18.1776 101.007 19.8947V10.7627ZM92.6505 30.2202C93.5773 31.1496 94.7443 31.6144 96.1515 31.6144C97.5587 31.6144 98.72 31.1496 99.6353 30.2202C100.55 29.2915 101.007 28.098 101.007 26.6399C101.007 25.1817 100.55 23.9882 99.6353 23.0595C98.72 22.1308 97.5587 21.6664 96.1515 21.6664C94.7443 21.6664 93.5773 22.1308 92.6505 23.0595C91.7243 23.989 91.2613 25.1824 91.2613 26.6399C91.2613 28.0973 91.7243 29.2908 92.6505 30.2202Z" fill="#2389DA"/>
    <path d="M113.531 28.5089C114.142 30.72 115.795 31.8256 118.492 31.8256C120.228 31.8256 121.542 31.2375 122.433 30.0614L126.091 32.1782C124.356 34.6952 121.799 35.9538 118.422 35.9538C115.513 35.9538 113.18 35.0717 111.421 33.3076C109.661 31.5435 108.782 29.3208 108.782 26.6395C108.782 23.9814 109.649 21.7645 111.385 19.9887C113.12 18.213 115.349 17.3252 118.07 17.3252C120.651 17.3252 122.778 18.2188 124.453 20.0061C126.128 21.7934 126.967 24.0045 126.97 26.6395C126.966 27.2666 126.907 27.8921 126.793 28.5089H113.531ZM113.461 24.9806H122.433C122.174 23.7814 121.641 22.8877 120.832 22.2997C120.031 21.7141 119.062 21.4046 118.07 21.4176C116.851 21.4176 115.841 21.7294 115.041 22.3529C114.24 22.9763 113.713 23.8523 113.461 24.9806Z" fill="#2389DA"/>
    <path d="M143.366 17.819H147.91V35.4603H143.366V33.3783C142.006 35.0961 140.095 35.9547 137.632 35.954C135.287 35.954 133.275 35.0542 131.598 33.2546C129.921 31.455 129.083 29.249 129.083 26.6364C129.083 24.0253 129.921 21.8192 131.598 20.0182C133.275 18.2172 135.287 17.3174 137.632 17.3188C140.096 17.3188 142.008 18.1774 143.366 19.8945V17.819ZM134.994 30.22C135.908 31.1494 137.069 31.6142 138.476 31.6142C139.883 31.6142 141.05 31.1494 141.977 30.22C142.903 29.2913 143.366 28.0978 143.366 26.6397C143.366 25.1815 142.903 23.988 141.977 23.0593C141.05 22.1306 139.883 21.6662 138.476 21.6662C137.069 21.6662 135.908 22.1306 134.994 23.0593C134.078 23.9888 133.621 25.1822 133.621 26.6397C133.621 28.0971 134.078 29.2906 134.994 30.22Z" fill="#2389DA"/>
    <path d="M152.021 35.4602V9.70459H156.566V35.4602H152.021Z" fill="#2389DA"/>
    <path d="M90.1362 69.3705C86.4296 69.3705 83.3685 68.1355 80.9529 65.6654C78.5374 63.1953 77.3296 60.1488 77.3296 56.5258C77.3296 52.8804 78.5374 49.8284 80.9529 47.3699C83.3685 44.9114 86.4296 43.6818 90.1362 43.6811C92.2947 43.6639 94.4212 44.2045 96.3107 45.251C98.14 46.2421 99.6662 47.7133 100.726 49.5072L96.539 51.9408C95.9369 50.8442 95.0334 49.9442 93.9359 49.3478C92.8093 48.725 91.5427 48.4136 90.1362 48.4136C87.743 48.4136 85.8136 49.1662 84.348 50.6714C82.8823 52.1766 82.1495 54.1281 82.1495 56.5258C82.1495 58.9018 82.8823 60.8424 84.348 62.3476C85.8136 63.8528 87.743 64.6054 90.1362 64.6054C91.4671 64.6243 92.7809 64.3024 93.9532 63.6702C95.0469 63.0906 95.9463 62.2008 96.539 61.1119L100.726 63.5487C99.6689 65.3376 98.1494 66.8067 96.328 67.8006C94.4512 68.8479 92.3873 69.3712 90.1362 69.3705Z" fill="#2389DA"/>
    <path d="M103.787 68.8767V43.1211H108.331V68.8767H103.787Z" fill="#2389DA"/>
    <path d="M116.312 61.9254C116.921 64.1365 118.575 65.2421 121.272 65.2421C123.008 65.2421 124.321 64.654 125.213 63.4779L128.872 65.5947C127.135 68.1118 124.578 69.3703 121.202 69.3703C118.292 69.3703 115.958 68.4882 114.2 66.7241C112.441 64.96 111.562 62.7373 111.562 60.056C111.562 57.3979 112.43 55.181 114.165 53.4053C115.9 51.6295 118.129 50.7417 120.849 50.7417C123.428 50.7417 125.556 51.6353 127.232 53.4226C128.909 55.2099 129.747 57.421 129.748 60.056C129.744 60.6831 129.685 61.3086 129.572 61.9254H116.312ZM116.241 58.3971H125.213C124.954 57.1986 124.421 56.305 123.611 55.7162C122.81 55.1308 121.841 54.8213 120.85 54.8341C119.63 54.8341 118.62 55.1459 117.821 55.7694C117.022 56.3928 116.495 57.2688 116.241 58.3971Z" fill="#2389DA"/>
    <path d="M146.146 51.2355H150.69V68.8768H146.146V66.7948C144.785 68.5126 142.874 69.3712 140.412 69.3704C138.066 69.3704 136.055 68.4707 134.378 66.6711C132.701 64.8715 131.862 62.6655 131.862 60.0529C131.862 57.4418 132.701 55.2357 134.378 53.4347C136.055 51.6337 138.066 50.7339 140.412 50.7354C142.874 50.7354 144.785 51.5939 146.146 53.311V51.2355ZM137.773 63.6365C138.687 64.5666 139.848 65.0314 141.255 65.0306C142.663 65.0299 143.832 64.5652 144.76 63.6365C145.686 62.7078 146.149 61.5143 146.149 60.0562C146.149 58.598 145.686 57.4045 144.76 56.4758C143.833 55.5471 142.666 55.0827 141.259 55.0827C139.852 55.0827 138.691 55.5471 137.776 56.4758C136.861 57.406 136.403 58.5994 136.404 60.0562C136.405 61.5129 136.861 62.7063 137.773 63.6365Z" fill="#2389DA"/>
    <path d="M164.581 50.7417C166.505 50.7417 168.094 51.3883 169.348 52.6816C170.603 53.9749 171.23 55.7625 171.231 58.0445V68.8766H166.687V58.6098C166.687 57.4337 166.37 56.5339 165.737 55.9104C165.104 55.2869 164.259 54.9752 163.204 54.9752C162.031 54.9752 161.094 55.3397 160.391 56.0688C159.689 56.7979 159.338 57.8904 159.339 59.3464V68.8723H154.795V51.2354H159.339V53.211C160.439 51.5648 162.186 50.7417 164.581 50.7417Z" fill="#2389DA"/>
    <path d="M177.352 49.1187C176.618 49.107 175.917 48.8089 175.398 48.2878C174.879 47.7667 174.583 47.0635 174.573 46.3271C174.571 45.9589 174.643 45.5941 174.785 45.2546C174.928 44.915 175.137 44.6079 175.4 44.3515C175.649 44.0828 175.95 43.8689 176.286 43.723C176.621 43.5772 176.983 43.5026 177.348 43.5041C177.72 43.4995 178.089 43.5725 178.431 43.7184C178.773 43.8642 179.082 44.0798 179.336 44.3515C179.6 44.6081 179.809 44.9153 179.951 45.2548C180.093 45.5943 180.165 45.959 180.163 46.3271C180.165 46.692 180.093 47.0533 179.951 47.3892C179.809 47.725 179.6 48.0281 179.336 48.2801C179.08 48.5482 178.772 48.761 178.431 48.9052C178.09 49.0495 177.723 49.1221 177.352 49.1187ZM175.101 68.8768V51.2355H179.645V68.8768H175.101Z" fill="#2389DA"/>
    <path d="M193.572 50.7417C195.495 50.7417 197.084 51.3883 198.339 52.6816C199.595 53.9749 200.222 55.7625 200.221 58.0445V68.8766H195.683V58.6098C195.683 57.4337 195.367 56.5339 194.733 55.9104C194.1 55.2869 193.256 54.9752 192.2 54.9752C191.027 54.9752 190.089 55.3397 189.387 56.0688C188.684 56.7979 188.332 57.8904 188.33 59.3464V68.8723H183.786V51.2354H188.33V53.211C189.432 51.5648 191.18 50.7417 193.572 50.7417Z" fill="#2389DA"/>
    <path d="M217.566 51.2356H222.002V68.0263C222.002 70.7546 221.104 72.8362 219.31 74.2713C217.515 75.7063 215.352 76.4238 212.818 76.4238C210.919 76.4238 209.247 76.0593 207.805 75.3302C206.393 74.6293 205.231 73.5075 204.48 72.1187L208.35 69.8967C209.24 71.543 210.776 72.3661 212.957 72.3661C214.387 72.3661 215.513 71.9896 216.335 71.2367C217.156 70.4837 217.567 69.4136 217.566 68.0263V66.1244C216.229 67.9124 214.354 68.8064 211.94 68.8064C209.454 68.8064 207.372 67.9301 205.695 66.1775C204.018 64.425 203.18 62.2913 203.18 59.7763C203.18 57.2831 204.024 55.1545 205.712 53.3903C207.401 51.6262 209.477 50.7441 211.94 50.7441C214.356 50.7441 216.231 51.6378 217.566 53.4251V51.2356ZM209.104 63.2525C210.032 64.1588 211.211 64.6116 212.641 64.6109C214.071 64.6102 215.25 64.1574 216.177 63.2525C217.103 62.3462 217.566 61.1889 217.566 59.7807C217.566 58.3927 217.103 57.2459 216.177 56.3403C215.251 55.4347 214.072 54.982 212.641 54.982C211.209 54.982 210.03 55.4347 209.104 56.3403C208.178 57.2459 207.715 58.3927 207.715 59.7807C207.715 61.1882 208.178 62.3455 209.104 63.2525Z" fill="#2389DA"/>
    <path d="M56.3459 36.7905C55.5304 34.0941 54.2164 31.5756 52.4727 29.3662C54.4613 32.0059 55.9133 35.0118 56.7462 38.2129C56.624 37.7388 56.493 37.2636 56.3459 36.7905Z" fill="#2389DA"/>
    <path d="M42.3987 17.4001C43.3456 17.4113 44.2582 17.0449 44.9357 16.3814C45.6131 15.7179 46 14.8117 46.0112 13.8621C46.0224 12.9125 45.657 11.9974 44.9953 11.318C44.3337 10.6386 43.43 10.2507 42.4831 10.2394C40.474 10.2015 38.9247 11.7692 38.9312 13.835C38.9366 15.84 40.4275 17.3741 42.3987 17.4001Z" fill="#2389DA"/>
    <path d="M55.7182 21.9256C53.9645 20.0302 51.8233 19.9607 50.0079 21.7661L49.983 21.7911C49.6787 22.0942 49.4376 22.4552 49.2741 22.8528C49.1105 23.2505 49.0276 23.6769 49.0303 24.1071C49.0331 24.5372 49.1213 24.9625 49.2899 25.3581C49.4585 25.7537 49.7041 26.1115 50.0122 26.4108C50.9551 27.3273 51.8261 28.3153 52.6175 29.3662C54.3624 31.5753 55.6774 34.0939 56.494 36.7905C56.6411 37.2635 56.7731 37.7387 56.8921 38.2129C60.0145 50.6431 53.6053 63.3143 41.5668 68.1347C26.8052 74.0531 9.81697 64.3374 7.45299 48.5698C7.25304 47.2557 7.14458 45.9292 7.12842 44.6C7.04727 37.0932 10.1296 30.7126 15.8357 25.2162C22.2276 19.0537 28.4107 12.6742 34.6826 6.38694C36.2438 4.82136 36.352 2.54839 34.9347 1.08479C34.6125 0.747816 34.2265 0.478643 33.7994 0.293008C33.3722 0.107373 32.9125 0.00900301 32.447 0.00364896C31.9814 -0.00170509 31.5195 0.0860647 31.0883 0.261826C30.657 0.437587 30.265 0.697813 29.9352 1.02729C22.3618 8.63062 14.6802 16.1309 7.37509 23.9837C2.74342 28.9604 0.648838 35.2499 0.107881 42.059C-1.28238 59.3368 11.3165 74.0922 27.397 76.6168C44.2619 79.2663 60.9363 67.8689 64.1161 51.0652C66.2128 39.9727 63.3998 30.2255 55.7182 21.9256ZM32.7297 69.9889H32.575C32.6832 69.9889 32.7914 69.9889 32.8996 69.9889C32.8488 69.9856 32.7914 69.9889 32.7341 69.9889H32.7297ZM57.7035 45.3345C57.7035 45.4549 57.6938 45.5742 57.6895 45.6936C57.6895 45.5667 57.7003 45.4397 57.7035 45.3128V45.3345Z" fill="#2389DA"/>
    <path d="M52.3745 29.2446C52.4059 29.2859 52.4383 29.3249 52.4697 29.3661C52.4373 29.326 52.407 29.2848 52.3745 29.2446Z" fill="#2389DA"/>
    <path d="M50.219 44.6294C50.219 44.8464 50.2103 45.071 50.2017 45.2901C50.2114 45.071 50.2179 44.8507 50.219 44.6294Z" fill="#2389DA"/>
    <path d="M44.3798 31.3484C43.8076 30.82 43.0537 30.5341 42.276 30.5507C41.4983 30.5673 40.7572 30.885 40.2079 31.4374L40.1884 31.4569C38.4184 33.246 38.4141 35.187 40.1192 37.0216C43.3801 40.5325 44.0433 45.3942 41.8319 49.594C39.7622 53.5226 35.1813 55.9388 30.9608 55.3258C26.116 54.6239 22.4656 51.203 21.573 46.4846C20.8611 42.7209 21.956 39.4812 24.6024 36.7808C27.8838 33.4348 31.228 30.1517 34.5268 26.822L34.5668 26.7797C36.5467 24.7357 36.0415 21.7423 33.5292 20.7539C32.1563 20.2114 30.8245 20.4186 29.7674 21.471C26.0121 25.2141 22.0945 28.8205 18.6086 32.8055C14.4627 37.5478 13.2444 43.1125 14.8468 48.9713C14.9189 49.2382 14.9971 49.5058 15.0815 49.7741C14.9971 49.5058 14.9189 49.2382 14.8468 48.9713C15.2404 50.5619 15.851 52.0906 16.6611 53.514C16.4783 53.1787 16.3073 52.8315 16.1407 52.4789C16.3073 52.8315 16.4783 53.1787 16.6611 53.514C17.1229 54.3268 17.647 55.1023 18.2288 55.8336C17.647 55.1023 17.1229 54.3268 16.6611 53.514C18.2267 56.3891 20.4002 58.6035 23.1375 60.1235C22.6733 59.849 22.2243 59.5517 21.7894 59.2371C22.2222 59.5517 22.6733 59.849 23.1375 60.1235C25.8146 61.7105 28.8571 62.5726 31.9666 62.6252C35.0761 62.6777 38.1458 61.9189 40.8747 60.4231C43.6037 58.9274 45.8981 56.7461 47.5329 54.0931C49.1678 51.4402 50.087 48.4066 50.2005 45.29C50.2091 45.073 50.2178 44.8506 50.2178 44.6293C50.2206 42.13 49.7028 39.6576 48.6974 37.3706C47.6921 35.0836 46.2215 33.0324 44.3798 31.3484ZM19.4741 57.2429C20.0617 57.8424 20.69 58.4003 21.3545 58.9127C20.69 58.4003 20.0617 57.8424 19.4741 57.2429Z" fill="#2389DA"/>
  </g>
  <defs>
    <clipPath id="clip0_0_596">
      <rect width="222" height="77" fill="white"/>
    </clipPath>
  </defs>
</svg>